<?xml version="1.0" standalone="no"?><!DOCTYPE svg PUBLIC "-//W3C//DTD SVG 1.1//EN"
  "http://www.w3.org/Graphics/SVG/1.1/DTD/svg11.dtd">
<svg class="icon" width="200px" height="200.00px" viewBox="0 0 1024 1024" version="1.1"
     xmlns="http://www.w3.org/2000/svg">
  <path
    d="M554.666667 853.333333c-4.266667 0-12.8 0-17.066667-4.266666-17.066667-8.533333-25.6-21.333333-25.6-38.4V213.333333c0-17.066667 8.533333-29.866667 25.6-38.4 12.8-8.533333 34.133333-4.266667 46.933333 4.266667l384 298.666667c8.533333 8.533333 17.066667 21.333333 17.066667 34.133333s-4.266667 25.6-17.066667 34.133333l-384 298.666667c-12.8 4.266667-21.333333 8.533333-29.866666 8.533333z m42.666666-554.666666v426.666666l273.066667-213.333333L597.333333 298.666667zM85.333333 853.333333c-4.266667 0-12.8 0-17.066666-4.266666-17.066667-8.533333-25.6-21.333333-25.6-38.4V213.333333c0-17.066667 8.533333-29.866667 25.6-38.4 12.8-8.533333 29.866667-4.266667 42.666666 4.266667l384 298.666667c8.533333 8.533333 17.066667 21.333333 17.066667 34.133333s-4.266667 25.6-17.066667 34.133333l-384 298.666667c-8.533333 4.266667-17.066667 8.533333-25.6 8.533333zM128 298.666667v426.666666l273.066667-213.333333L128 298.666667z"/>
</svg>
