<?xml  version="1.0" standalone="no"?><!DOCTYPE svg PUBLIC "-//W3C//DTD SVG 1.1//EN"
  "http://www.w3.org/Graphics/SVG/1.1/DTD/svg11.dtd">
<svg class="icon" width="200px" height="200.00px" viewBox="0 0 1024 1024" version="1.1"
     xmlns="http://www.w3.org/2000/svg">
  <path
    d="M469.333333 853.333333c-8.533333 0-17.066667-4.266667-25.6-8.533333l-384-298.666667c-12.8-8.533333-17.066667-21.333333-17.066666-34.133333s4.266667-25.6 17.066666-34.133333l384-298.666667c12.8-8.533333 29.866667-12.8 46.933334-4.266667 12.8 8.533333 21.333333 21.333333 21.333333 38.4v597.333334c0 17.066667-8.533333 29.866667-25.6 38.4-4.266667 4.266667-12.8 4.266667-17.066667 4.266666z m-315.733333-341.333333l273.066667 213.333333V298.666667l-273.066667 213.333333zM938.666667 853.333333c-8.533333 0-17.066667-4.266667-25.6-8.533333l-384-298.666667c-12.8-8.533333-17.066667-21.333333-17.066667-34.133333s4.266667-25.6 17.066667-34.133333l384-298.666667c12.8-8.533333 29.866667-12.8 46.933333-4.266667 12.8 8.533333 21.333333 21.333333 21.333333 38.4v597.333334c0 17.066667-8.533333 29.866667-25.6 38.4-4.266667 4.266667-12.8 4.266667-17.066666 4.266666z m-315.733334-341.333333l273.066667 213.333333V298.666667l-273.066667 213.333333z"/>
</svg>
